<svg width="86" height="59" viewBox="0 0 86 59" fill="none" xmlns="http://www.w3.org/2000/svg">
<circle cx="4.48913" cy="4.48913" r="4.48913" fill="#877898"/>
<circle cx="81.4462" cy="4.48913" r="4.48913" fill="#877898"/>
<circle cx="66.0536" cy="4.48913" r="4.48913" fill="#877898"/>
<circle cx="19.8798" cy="4.48913" r="4.48913" fill="#877898"/>
<circle cx="35.2723" cy="4.48913" r="4.48913" fill="#877898"/>
<circle cx="50.663" cy="4.48913" r="4.48913" fill="#877898"/>
<circle cx="4.48913" cy="37.8368" r="4.48913" fill="#877898"/>
<circle cx="81.4462" cy="37.8368" r="4.48913" fill="#877898"/>
<circle cx="66.0536" cy="37.8368" r="4.48913" fill="#877898"/>
<circle cx="19.8798" cy="37.8368" r="4.48913" fill="#877898"/>
<circle cx="35.2723" cy="37.8368" r="4.48913" fill="#877898"/>
<circle cx="50.663" cy="37.8368" r="4.48913" fill="#877898"/>
<circle cx="4.48913" cy="21.163" r="4.48913" fill="#877898"/>
<circle cx="81.4462" cy="21.163" r="4.48913" fill="#877898"/>
<circle cx="66.0536" cy="21.163" r="4.48913" fill="#877898"/>
<circle cx="19.8798" cy="21.163" r="4.48913" fill="#877898"/>
<circle cx="35.2723" cy="21.163" r="4.48913" fill="#877898"/>
<circle cx="50.663" cy="21.163" r="4.48913" fill="#877898"/>
<circle cx="4.48913" cy="54.5106" r="4.48913" fill="#877898"/>
<circle cx="81.4462" cy="54.5106" r="4.48913" fill="#877898"/>
<circle cx="66.0536" cy="54.5106" r="4.48913" fill="#877898"/>
<circle cx="19.8798" cy="54.5106" r="4.48913" fill="#877898"/>
<circle cx="35.2723" cy="54.5106" r="4.48913" fill="#877898"/>
<circle cx="50.663" cy="54.5106" r="4.48913" fill="#877898"/>
</svg>
