<svg width="264" height="511" viewBox="0 0 264 511" fill="none" xmlns="http://www.w3.org/2000/svg">
<path fill-rule="evenodd" clip-rule="evenodd" d="M339.208 107.024C358.285 107.806 368.835 128.509 385.46 137.694C405.424 148.723 438.984 144.668 445.994 166.02C453.011 187.394 421.302 202.442 413.668 223.613C406.357 243.888 418.865 270.896 402.863 285.636C386.942 300.302 360.669 296.326 339.208 292.204C320.544 288.619 308.192 273.065 291.451 264.236C270.865 253.379 242.672 253.898 230.056 234.637C216.701 214.245 213.279 184.825 225.73 163.893C237.983 143.296 268.366 144.651 290.05 133.784C307.159 125.21 320.001 106.237 339.208 107.024Z" stroke="#A28FD5"/>
<path fill-rule="evenodd" clip-rule="evenodd" d="M337.099 136.016C350.178 136.554 357.411 150.794 368.809 157.112C382.496 164.699 405.504 161.91 410.31 176.596C415.121 191.298 393.381 201.648 388.148 216.21C383.136 230.156 391.711 248.733 380.74 258.872C369.825 268.959 351.812 266.224 337.099 263.389C324.303 260.923 315.835 250.225 304.357 244.152C290.244 236.684 270.915 237.041 262.266 223.792C253.109 209.767 250.763 189.53 259.3 175.133C267.7 160.966 288.53 161.897 303.397 154.423C315.126 148.525 323.931 135.475 337.099 136.016Z" stroke="#A28FD5"/>
<path fill-rule="evenodd" clip-rule="evenodd" d="M341.084 84.0295C364.078 85.0017 376.792 110.744 396.829 122.164C420.891 135.878 461.339 130.836 469.787 157.384C478.245 183.961 440.027 202.671 430.827 228.995C422.016 254.204 437.09 287.786 417.804 306.114C398.616 324.349 366.95 319.406 341.084 314.28C318.59 309.822 303.703 290.483 283.526 279.505C258.715 266.005 224.735 266.651 209.531 242.702C193.434 217.347 189.31 180.766 204.317 154.74C219.084 129.13 255.703 130.815 281.838 117.302C302.457 106.642 317.935 83.0508 341.084 84.0295Z" stroke="#A28FD5"/>
<path fill-rule="evenodd" clip-rule="evenodd" d="M342.432 61.0352C369.257 62.1935 384.091 92.8648 407.468 106.472C435.54 122.812 482.728 116.805 492.585 148.437C502.452 180.103 457.865 202.395 447.131 233.76C436.851 263.797 454.438 303.809 431.938 325.646C409.552 347.374 372.609 341.483 342.432 335.376C316.188 330.065 298.82 307.023 275.28 293.942C246.334 277.857 206.691 278.626 188.953 250.091C170.173 219.882 165.361 176.296 182.869 145.287C200.098 114.772 242.82 116.779 273.311 100.679C297.367 87.9774 315.425 59.8691 342.432 61.0352Z" stroke="#A28FD5"/>
<path fill-rule="evenodd" clip-rule="evenodd" d="M343.662 40.0406C373.986 41.3768 390.755 76.7583 417.181 92.4552C448.915 111.305 502.258 104.375 513.4 140.864C524.554 177.393 474.152 203.109 462.018 239.291C450.397 273.94 470.278 320.097 444.843 345.288C419.537 370.352 377.775 363.558 343.662 356.512C313.995 350.386 294.362 323.805 267.752 308.716C235.03 290.16 190.216 291.047 170.164 258.13C148.935 223.282 143.496 173.002 163.287 137.231C182.763 102.03 231.057 104.345 265.526 85.773C292.719 71.1204 313.132 38.6954 343.662 40.0406Z" stroke="#A28FD5"/>
<path fill-rule="evenodd" clip-rule="evenodd" d="M344.714 15.0469C379.454 16.5899 398.664 57.4484 428.938 75.5752C465.293 97.343 526.403 89.3404 539.167 131.478C551.946 173.662 494.204 203.358 480.303 245.141C466.991 285.154 489.766 338.456 460.628 367.547C431.637 396.491 383.794 388.644 344.714 380.508C310.728 373.433 288.236 342.738 257.751 325.312C220.265 303.885 168.926 304.909 145.954 266.896C121.634 226.653 115.403 168.591 138.076 127.282C160.388 86.632 215.714 89.3057 255.201 67.8586C286.354 50.9377 309.739 13.4935 344.714 15.0469Z" stroke="#A28FD5"/>
<path fill-rule="evenodd" clip-rule="evenodd" d="M346.355 -12.9462C385.76 -11.1757 407.55 35.7076 441.889 56.5072C483.126 81.4847 552.443 72.3021 566.921 120.653C581.416 169.057 515.92 203.132 500.152 251.076C485.052 296.989 510.886 358.15 477.834 391.531C444.95 424.742 390.683 415.739 346.355 406.404C307.805 398.285 282.292 363.063 247.713 343.069C205.192 318.482 146.959 319.657 120.902 276.039C93.3164 229.862 86.2483 163.238 111.967 115.838C137.275 69.1944 200.031 72.2623 244.82 47.6527C280.157 28.2369 306.683 -14.7287 346.355 -12.9462Z" stroke="#A28FD5"/>
<path fill-rule="evenodd" clip-rule="evenodd" d="M347.878 -40.939C391.615 -38.9327 415.8 14.1944 453.915 37.764C499.685 66.0679 576.622 55.6625 592.693 110.453C608.78 165.303 536.084 203.916 518.583 258.245C501.823 310.273 530.497 379.579 493.812 417.405C457.312 455.04 397.079 444.837 347.878 434.259C305.09 425.059 276.772 385.147 238.392 362.489C191.196 334.628 126.562 335.96 97.64 286.533C67.0214 234.206 59.1763 158.709 87.722 104.996C115.812 52.1408 185.467 55.6174 235.181 27.7303C274.403 5.7287 303.845 -42.9589 347.878 -40.939Z" stroke="#A28FD5"/>
<path fill-rule="evenodd" clip-rule="evenodd" d="M349.694 -70.9316C398.596 -68.6812 425.638 -9.09129 468.253 17.3456C519.429 49.0927 605.452 37.4214 623.42 98.8768C641.408 160.399 560.127 203.71 540.559 264.648C521.819 323.005 553.88 400.742 512.862 443.17C472.052 485.383 404.706 473.939 349.694 462.074C301.853 451.755 270.191 406.987 227.278 381.573C174.509 350.323 102.241 351.817 69.9041 296.377C35.6696 237.685 26.898 153.004 58.8149 92.7567C90.2223 33.4714 168.104 37.3708 223.688 6.09129C267.542 -18.5868 300.461 -73.1972 349.694 -70.9316Z" stroke="#A28FD5"/>
<path fill-rule="evenodd" clip-rule="evenodd" d="M352.449 -107.922C407.766 -105.366 438.355 -37.6699 486.561 -7.63675C544.449 28.4288 641.757 15.1699 662.082 84.9851C682.429 154.876 590.486 204.079 568.351 273.306C547.153 339.601 583.419 427.913 537.021 476.112C490.858 524.067 414.678 511.067 352.449 497.587C298.332 485.865 262.517 435.007 213.975 406.137C154.285 370.635 72.537 372.332 35.958 309.351C-2.76726 242.675 -12.6894 146.475 23.4141 78.0325C58.9414 10.6826 147.039 15.1124 209.915 -20.422C259.521 -48.457 296.758 -110.496 352.449 -107.922Z" stroke="#A28FD5"/>
</svg>
